<?xml version="1.0" standalone="no"?>
<!DOCTYPE svg PUBLIC "-//W3C//DTD SVG 20010904//EN"
 "http://www.w3.org/TR/2001/REC-SVG-20010904/DTD/svg10.dtd">
<svg version="1.0" xmlns="http://www.w3.org/2000/svg"
 width="187.000000pt" height="187.000000pt" viewBox="0 0 187.000000 187.000000"
 preserveAspectRatio="xMidYMid meet">
<metadata>
Created by potrace 1.14, written by Peter Selinger 2001-2017
</metadata>
<g transform="translate(0.000000,187.000000) scale(0.100000,-0.100000)"
fill="#000000" stroke="none">
<path d="M765 1539 c-28 -3 -62 -10 -75 -15 -14 -4 -27 -8 -30 -9 -10 -2 -106
-54 -131 -72 -97 -67 -214 -215 -239 -304 l-13 -46 -135 1 c-73 1 -135 -1
-137 -4 -2 -3 24 -42 57 -88 l59 -84 -45 -76 c-24 -42 -46 -84 -48 -92 -2 -12
18 -14 117 -16 157 -2 155 -2 155 -18 0 -18 81 -139 124 -185 85 -91 214 -163
341 -188 43 -9 224 -9 265 -1 131 27 302 128 360 213 50 74 73 110 91 145 20
39 21 39 77 38 85 -1 87 0 120 30 17 15 67 58 111 96 l81 68 -52 37 c-167 115
-189 126 -253 126 -33 0 -60 5 -61 10 -4 63 -90 210 -161 275 -153 141 -337
192 -578 159z"/>
</g>
</svg>
