<?xml version="1.0" standalone="no"?>
<!DOCTYPE svg PUBLIC "-//W3C//DTD SVG 20010904//EN"
 "http://www.w3.org/TR/2001/REC-SVG-20010904/DTD/svg10.dtd">
<svg version="1.0" xmlns="http://www.w3.org/2000/svg"
 width="201.000000pt" height="201.000000pt" viewBox="0 0 201.000000 201.000000"
 preserveAspectRatio="xMidYMid meet">
<metadata>
Created by potrace 1.11, written by Peter Selinger 2001-2013
</metadata>
<g transform="translate(0.000000,201.000000) scale(0.100000,-0.100000)"
fill="#000000" stroke="none">
<path d="M875 1947 c-141 -73 -241 -141 -347 -234 -293 -259 -471 -608 -518
-1018 -11 -98 -13 -317 -4 -353 14 -49 275 -196 458 -257 188 -63 288 -78 506
-79 217 -1 332 16 513 75 175 57 468 216 497 269 6 10 13 72 16 137 32 587
-320 1180 -866 1462 -65 34 -122 61 -126 61 -5 0 -63 -29 -129 -63z m310 -72
c428 -259 710 -688 766 -1166 13 -116 6 -323 -12 -345 -21 -25 -148 -104 -251
-155 -122 -61 -297 -120 -433 -145 -150 -28 -442 -26 -585 5 -202 43 -377 115
-539 221 l-91 60 0 127 c0 349 80 638 248 898 149 232 350 409 617 543 l99 50
51 -22 c27 -13 86 -44 130 -71z"/>
<path d="M884 1828 c-21 -10 -21 -10 9 -65 39 -72 26 -85 -39 -40 -75 51 -74
51 -74 25 0 -15 8 -27 23 -33 23 -10 27 -27 8 -33 -6 -2 -11 4 -11 14 0 9 -2
15 -5 12 -3 -3 -3 -24 1 -46 5 -31 10 -39 22 -34 10 4 12 7 4 10 -17 5 -15 27
4 43 14 11 18 11 28 -3 12 -16 19 -14 88 23 66 34 75 42 70 61 -5 22 -6 22
-14 -4 -8 -22 -35 -45 -43 -36 -14 16 -53 107 -48 112 8 8 2 7 -23 -6z"/>
<path d="M1120 1812 c0 -4 -15 -30 -33 -58 l-34 -51 30 -16 c30 -18 74 -22 93
-9 19 13 35 52 29 72 -10 33 -85 87 -85 62z m57 -38 c9 -23 -22 -81 -47 -89
-37 -12 -40 8 -10 58 31 49 47 58 57 31z"/>
<path d="M1250 1730 c0 -5 -16 -32 -35 -58 -26 -37 -32 -51 -23 -60 15 -15 28
-15 28 -2 0 17 54 89 69 92 10 2 6 9 -12 21 -15 10 -27 13 -27 7z"/>
<path d="M661 1682 c-40 -35 -42 -39 -25 -52 11 -9 15 -10 10 -3 -4 7 -3 20 2
29 8 14 15 9 46 -31 20 -26 36 -52 36 -58 0 -6 9 -2 20 8 11 10 16 21 11 24
-15 10 -71 83 -71 94 0 5 11 7 25 5 20 -4 23 -3 14 8 -16 19 -18 18 -68 -24z"/>
<path d="M1301 1619 c-12 -39 -21 -72 -19 -73 1 -2 33 11 70 29 57 28 65 35
53 45 -12 10 -15 10 -15 -2 0 -8 -16 -22 -35 -31 -19 -9 -35 -15 -35 -13 0 12
25 72 32 77 5 3 0 13 -10 22 -17 16 -19 13 -41 -54z"/>
<path d="M587 1624 c-3 -3 9 -19 26 -35 l32 -30 -56 7 c-44 5 -58 3 -68 -10
-11 -13 -11 -16 2 -16 8 0 33 -20 55 -44 22 -24 43 -42 45 -39 3 2 -11 20 -31
39 l-37 35 68 -4 c37 -3 67 -1 65 3 -3 9 -87 100 -92 100 -1 0 -5 -3 -9 -6z"/>
<path d="M952 1591 c-362 -200 -613 -630 -639 -1098 l-6 -101 94 -46 c257
-124 634 -152 949 -71 94 25 273 106 319 146 l25 20 -12 117 c-42 412 -262
796 -574 1002 -50 33 -94 60 -97 60 -3 0 -30 -13 -59 -29z m204 -90 c281 -211
479 -590 510 -976 l6 -80 -52 -34 c-179 -115 -419 -169 -710 -158 -215 9 -400
52 -532 126 -48 26 -48 26 -48 80 0 79 27 250 56 349 95 329 278 581 538 742
l79 49 37 -19 c21 -11 73 -46 116 -79z"/>
<path d="M951 1485 c-288 -165 -528 -573 -566 -962 l-7 -72 68 -34 c271 -136
626 -153 949 -45 50 16 119 44 155 61 l65 32 -3 60 c-10 210 -86 436 -213 630
-29 44 -93 121 -143 171 -85 86 -218 184 -248 184 -7 0 -33 -11 -57 -25z m154
-59 c179 -120 342 -349 424 -594 32 -95 61 -246 61 -314 0 -35 -4 -39 -47 -62
-130 -65 -337 -119 -508 -131 -165 -12 -379 26 -535 93 l-85 37 -3 48 c-10
150 89 435 219 632 70 105 205 244 297 306 83 55 72 56 177 -15z"/>
<path d="M960 1419 c-98 -67 -247 -233 -315 -351 -31 -56 -26 -61 51 -56 48 3
50 4 97 73 26 39 69 95 95 125 l47 54 5 -414 5 -415 58 -3 57 -3 0 423 0 422
50 -49 c32 -31 65 -80 91 -132 l41 -83 62 0 c35 0 65 3 69 6 12 12 -80 155
-168 258 -38 46 -187 178 -198 176 -1 0 -22 -14 -47 -31z"/>
<path d="M566 893 c-54 -109 -123 -381 -100 -402 23 -21 350 -111 407 -111 14
0 17 9 17 53 l0 54 -82 17 c-127 27 -228 58 -228 70 0 19 39 149 61 204 l21
52 120 0 119 0 -3 53 -3 52 -152 3 -152 3 -25 -48z"/>
<path d="M1117 933 c-4 -3 -7 -128 -7 -276 l0 -270 61 7 c128 15 281 66 339
113 24 21 24 21 13 100 -12 80 -76 297 -95 321 -11 13 -298 18 -311 5z m257
-151 c14 -41 45 -174 46 -194 0 -12 -84 -47 -147 -62 l-63 -14 0 159 0 159 74
0 74 0 16 -48z"/>
<path d="M1433 1584 c4 -6 -15 -32 -42 -57 -43 -40 -47 -47 -34 -60 13 -13 19
-10 51 25 20 22 45 43 55 47 16 6 15 9 -9 31 -15 14 -24 20 -21 14z"/>
<path d="M1490 1518 c0 -18 -70 -78 -91 -78 -19 0 52 -70 77 -76 48 -12 93 42
74 89 -14 36 -59 85 -60 65z m46 -49 c10 -17 -17 -59 -49 -76 -26 -13 -31 -13
-44 0 -13 12 -9 19 28 51 46 39 54 42 65 25z"/>
<path d="M474 1498 c-52 -60 -58 -69 -43 -63 8 3 33 -13 60 -38 l46 -42 33 43
c30 39 32 45 18 58 -14 14 -15 14 -11 -8 2 -12 -2 -31 -9 -40 -12 -16 -14 -16
-38 2 -25 19 -25 19 -4 27 l22 8 -23 17 c-22 17 -23 17 -18 -2 6 -23 -6 -26
-32 -6 -16 12 -17 16 -6 30 7 9 22 16 33 16 10 0 16 5 13 10 -9 15 -20 12 -41
-12z"/>
<path d="M401 1406 c-12 -14 -11 -16 5 -16 19 -1 54 -22 54 -34 0 -3 -22 -6
-50 -6 -35 0 -52 -5 -58 -17 -8 -13 -3 -20 27 -35 21 -10 47 -27 58 -38 12
-10 24 -16 27 -13 9 9 7 23 -1 21 -11 -3 -73 35 -73 44 0 4 19 8 43 9 23 1 53
4 66 8 23 6 22 8 -27 39 -28 19 -52 38 -54 44 -2 6 -10 3 -17 -6z"/>
<path d="M1590 1391 c0 -11 -80 -64 -97 -64 -6 0 1 -19 18 -43 35 -51 41 -55
59 -43 13 7 13 9 -1 9 -9 0 -24 9 -35 21 -16 18 -16 22 -4 29 8 5 31 20 50 35
33 24 36 25 48 8 7 -10 11 -26 8 -36 -4 -15 -2 -16 10 -7 11 10 9 19 -17 56
-30 44 -39 52 -39 35z"/>
<path d="M1567 1300 c-4 -17 -2 -18 14 -9 11 5 17 14 14 20 -10 15 -22 10 -28
-11z"/>
<path d="M315 1270 c-11 -21 -12 -28 -3 -25 7 3 36 -10 65 -29 l51 -33 11 23
c8 19 8 24 -3 24 -22 0 -107 51 -100 61 3 5 3 9 0 9 -3 0 -12 -13 -21 -30z"/>
<path d="M287 1223 c-14 -14 -6 -20 19 -15 19 3 22 7 12 13 -16 11 -23 11 -31
2z"/>
<path d="M1674 1218 c-4 -6 -3 -8 3 -5 6 4 18 1 27 -6 15 -11 11 -16 -42 -42
-57 -27 -59 -30 -49 -53 6 -13 13 -19 15 -13 5 15 102 64 110 56 3 -3 1 -15
-6 -25 -13 -21 -6 -25 16 -11 11 7 9 19 -12 60 -25 49 -47 63 -62 39z"/>
<path d="M257 1156 c-15 -32 -14 -46 4 -46 4 0 5 9 2 20 -3 11 0 20 6 20 21 0
86 -31 98 -46 10 -14 13 -13 23 6 6 12 10 23 8 23 -14 8 -119 57 -121 57 -2 0
-11 -15 -20 -34z"/>
<path d="M228 1093 c-4 -14 -2 -20 6 -17 7 3 26 0 42 -7 l29 -11 -48 -17 c-44
-15 -66 -33 -67 -54 0 -5 4 -6 9 -3 13 8 94 -22 107 -39 10 -13 12 -13 17 5 3
11 2 18 -3 15 -4 -2 -26 3 -49 12 l-42 17 61 22 c34 12 63 24 66 27 3 2 -22
14 -55 27 -33 12 -62 27 -64 33 -2 6 -6 2 -9 -10z"/>
<path d="M1725 1070 c-22 -10 -50 -19 -62 -19 -20 -1 -21 -4 -11 -25 10 -23
12 -24 35 -9 32 21 38 12 12 -21 -19 -24 -20 -32 -11 -65 12 -37 12 -37 58
-34 41 3 45 2 34 -12 -7 -8 -16 -12 -21 -9 -5 3 -9 -2 -9 -10 0 -14 -11 -20
-32 -17 -4 0 -4 -8 0 -19 10 -27 20 -24 79 25 l52 43 -31 6 c-17 3 -48 6 -70
6 -45 0 -57 18 -34 52 11 16 26 23 49 23 28 0 32 4 35 30 3 28 2 29 -10 11
-15 -20 -49 -19 -56 2 -2 7 9 15 28 18 22 5 29 11 26 21 -4 8 -6 17 -6 19 0 7
-14 3 -55 -16z"/>
<path d="M176 928 c-36 -51 -5 -118 54 -118 40 0 70 31 70 73 0 43 -26 67 -73
67 -26 0 -40 -6 -51 -22z m99 -28 c20 -16 19 -49 -1 -57 -22 -8 -94 15 -101
33 -12 32 5 47 48 41 22 -3 46 -11 54 -17z"/>
<path d="M137 788 c-8 -28 -7 -29 22 -1 23 22 23 23 4 23 -13 0 -23 -8 -26
-22z"/>
<path d="M1860 802 c0 -11 -104 -37 -118 -28 -5 3 -6 -8 -4 -25 3 -20 8 -27
16 -20 14 11 108 31 119 24 4 -2 5 8 1 24 -7 31 -14 43 -14 25z"/>
<path d="M255 773 c12 -42 -3 -63 -43 -63 -21 0 -48 7 -60 16 -19 13 -22 13
-22 0 0 -19 47 -56 72 -56 46 0 84 72 57 110 -8 12 -9 10 -4 -7z"/>
<path d="M1880 720 c0 -9 -88 -27 -117 -24 -9 1 -11 -10 -7 -40 8 -61 11 -66
36 -66 l22 0 -22 16 c-34 23 -29 52 11 58 59 10 72 11 82 4 7 -4 9 6 7 28 -4
31 -12 48 -12 24z"/>
<path d="M307 323 c-2 -5 2 -26 8 -48 12 -39 12 -39 24 -16 8 15 9 21 2 17 -7
-5 -11 4 -11 23 0 28 -13 42 -23 24z"/>
<path d="M1628 315 c-7 -8 23 -65 35 -65 13 0 7 24 -11 48 -10 13 -21 20 -24
17z"/>
<path d="M1590 290 c0 -5 5 -21 12 -35 12 -28 34 -35 23 -7 -4 9 -10 25 -12
35 -6 18 -23 24 -23 7z"/>
<path d="M397 273 c-11 -10 -8 -61 3 -68 6 -4 10 10 10 34 0 42 -2 46 -13 34z"/>
<path d="M1530 259 c0 -13 38 -49 52 -49 16 0 7 15 -23 38 -16 14 -29 18 -29
11z"/>
<path d="M457 254 c9 -4 9 -13 2 -30 -11 -32 -12 -44 0 -44 5 0 12 14 16 31 5
23 11 29 23 24 11 -4 13 -3 7 3 -5 5 -21 12 -35 16 -14 3 -20 3 -13 0z"/>
<path d="M1475 231 c4 -12 2 -21 -4 -21 -6 0 -11 7 -11 15 0 8 -4 15 -10 15
-13 0 -13 -12 0 -44 11 -29 33 -37 23 -8 -5 14 -3 15 8 5 7 -7 20 -13 29 -13
13 1 13 2 -2 13 -9 7 -16 21 -15 31 1 11 -4 21 -12 24 -9 3 -11 -1 -6 -17z"/>
<path d="M516 208 c-8 -40 -8 -48 2 -48 4 0 12 16 18 35 8 26 8 35 -2 39 -7 3
-14 -8 -18 -26z"/>
<path d="M562 208 c-15 -15 -16 -45 -2 -53 6 -3 10 4 10 17 0 13 5 29 12 36 7
7 8 12 2 12 -5 0 -15 -5 -22 -12z"/>
<path d="M1365 210 c-4 -6 -1 -9 6 -8 7 2 15 -8 18 -21 4 -14 12 -26 18 -28 9
-3 9 5 1 31 -11 35 -30 46 -43 26z"/>
<path d="M1531 204 c0 -11 3 -14 6 -6 3 7 2 16 -1 19 -3 4 -6 -2 -5 -13z"/>
<path d="M610 188 c0 -13 -5 -29 -12 -36 -7 -7 -8 -12 -2 -12 27 0 46 51 24
65 -6 3 -10 -4 -10 -17z"/>
<path d="M650 196 c0 -3 10 -22 22 -43 16 -27 24 -33 26 -21 4 18 -25 68 -39
68 -5 0 -9 -2 -9 -4z"/>
<path d="M1273 193 c-30 -11 -7 -73 26 -73 11 0 11 3 -4 13 -12 10 -16 22 -13
40 3 15 5 27 4 26 0 0 -7 -3 -13 -6z"/>
<path d="M1305 190 c3 -5 8 -10 11 -10 2 0 4 5 4 10 0 6 -5 10 -11 10 -5 0 -7
-4 -4 -10z"/>
<path d="M1214 174 c3 -9 6 -27 6 -40 0 -13 5 -24 10 -24 6 0 10 17 8 40 -1
27 -7 40 -16 40 -9 0 -12 -6 -8 -16z"/>
<path d="M748 174 c-9 -8 12 -64 23 -64 5 0 6 12 3 28 -8 31 -18 45 -26 36z"/>
<path d="M810 140 c0 -52 15 -52 18 0 2 23 -2 40 -8 40 -5 0 -10 -18 -10 -40z"/>
<path d="M1130 171 c0 -13 61 -63 68 -56 6 6 -48 65 -60 65 -4 0 -8 -4 -8 -9z"/>
<path d="M910 159 c0 -20 38 -61 45 -48 4 6 -4 22 -19 35 -14 14 -26 20 -26
13z"/>
<path d="M945 160 c3 -5 8 -10 11 -10 2 0 4 5 4 10 0 6 -5 10 -11 10 -5 0 -7
-4 -4 -10z"/>
<path d="M980 155 c-14 -17 -5 -51 17 -59 13 -5 14 -4 3 9 -7 8 -10 25 -6 40
7 29 4 31 -14 10z"/>
<path d="M1025 160 c3 -5 8 -10 11 -10 2 0 4 5 4 10 0 6 -5 10 -11 10 -5 0 -7
-4 -4 -10z"/>
<path d="M1060 135 c0 -19 5 -35 10 -35 6 0 10 7 10 15 0 8 5 15 10 15 6 0 10
5 10 11 0 5 -4 7 -10 4 -5 -3 -10 1 -10 9 0 9 -4 16 -10 16 -5 0 -10 -16 -10
-35z"/>
<path d="M641 144 c0 -11 3 -14 6 -6 3 7 2 16 -1 19 -3 4 -6 -2 -5 -13z"/>
<path d="M1105 110 c-3 -5 -1 -10 4 -10 6 0 11 5 11 10 0 6 -2 10 -4 10 -3 0
-8 -4 -11 -10z"/>
</g>
</svg>
